#!OML:ASF E:\acrobat2\Project_11_07_03\Capture day 1\Session 1\Acrobat.ASF
:FULLY-SPECIFIED
:DEGREES
683
root 9.12884 18.3314 -15.9072 186.65 -2.59579 -179.609
lowerback -9.59063 1.08283 0.212662
upperback -4.5018 1.02186 -1.41635
thorax 0.736893 0.313357 -1.48143
lowerneck 3.20596 -2.13044 -1.59642
upperneck -8.10484 -2.85403 3.5929
head -3.08333 -1.57369 1.55415
rclavicle 2.33572e-015 1.03368e-014
rhumerus -46.4721 8.21316 -92.5137
rradius 27.9496
rwrist 1.01451
rhand -5.20548 -400.746
rfingers 7.12502
rthumb 20.596 290.326
lclavicle 2.33572e-015 1.03368e-014
lhumerus -38.7631 -20.817 94.9619
lradius 22.5962
lwrist 9.29096
lhand -1.65407 -370.988
lfingers 7.12502
lthumb 24.0051 17.5307
rfemur 2.55421 5.76401 24.0759
rtibia 0.5555
rfoot 343.407 -12.625
rtoes 12.6916
lfemur -1.14951 -2.05185 -18.6044
ltibia 4.62843
lfoot -3.09235 -9.94089
ltoes 31.3773
684
root 9.12626 18.3317 -15.9036 186.669 -2.66133 -179.683
lowerback -9.53519 1.07007 0.0643793
upperback -4.52328 1.01528 -1.42743
thorax 0.681417 0.310881 -1.41081
lowerneck 3.6761 -2.12078 -1.81279
upperneck -8.41476 -2.83498 3.86597
head -3.27509 -1.57419 1.69942
rclavicle -1.09332e-015 7.15625e-015
rhumerus -46.5198 8.34543 -92.6371
rradius 28.012
rwrist 0.803928
rhand -5.59612 -400.493
rfingers 7.12502
rthumb 20.2206 290.539
lclavicle -1.09332e-015 7.15625e-015
lhumerus -38.7129 -20.7613 94.9165
lradius 22.6129
lwrist 9.14432
lhand -1.67008 -370.971
lfingers 7.12502
lthumb 23.9898 17.5504
rfemur 2.5537 6.07028 24.036
rtibia 0.503109
rfoot 343.22 -12.9526
rtoes 12.6434
lfemur -1.18931 -2.05348 -18.692
ltibia 4.63574
lfoot -3.02883 -9.99251
ltoes 31.218
685
root 9.12615 18.3321 -15.8941 186.751 -2.68214 -179.769
lowerback -9.50815 1.04871 -0.104149
upperback -4.48048 1.0064 -1.45429
thorax 0.707885 0.310566 -1.34472
lowerneck 2.55183 -2.41996 -1.03887
upperneck -7.55243 -3.25346 2.93631
head -2.77663 -1.7536 1.22906
rclavicle -9.74045e-015 1.82882e-014
rhumerus -46.3749 8.45243 -92.7255
rradius 28.1377
rwrist 0.757613
rhand -5.6961 -400.503
rfingers 7.12502
rthumb 20.1245 290.519
lclavicle -9.74045e-015 1.82882e-014
lhumerus -38.4636 -20.8093 94.774
lradius 22.6078
lwrist 8.93254
lhand -1.73155 -371.089
lfingers 7.12502
lthumb 23.9308 17.4401
rfemur 2.40834 6.44409 23.9659
rtibia 0.54636
rfoot 342.991 -13.2495
rtoes 13.1584
lfemur -1.34372 -2.00789 -18.7614
ltibia 4.67271
lfoot -3.02295 -10.0204
ltoes 30.7059
686
root 9.12556 18.3335 -15.8823 186.842 -2.66077 -179.729
lowerback -9.42198 0.976761 -0.186771
upperback -4.47189 0.919661 -1.41699
thorax 0.665534 0.270024 -1.26907
lowerneck 2.73273 -2.2699 -1.14869
upperneck -7.83543 -3.04997 3.13511
head -2.9071 -1.66283 1.31628
rclavicle -1.45113e-014 1.23246e-014
rhumerus -46.2228 8.64413 -92.8117
rradius 28.3307
rwrist 0.918989
rhand -5.46151 -400.755
rfingers 7.12502
rthumb 20.3499 290.291
lclavicle -1.45113e-014 1.23246e-014
lhumerus -38.2249 -20.7453 94.5885
lradius 22.5828
lwrist 8.82388
lhand -1.75885 -371.132
lfingers 7.12502
lthumb 23.9047 17.4006
rfemur 2.20835 6.63679 24.0193
rtibia 0.640533
rfoot 343.018 -13.4967
rtoes 12.559
lfemur -1.53942 -1.98419 -18.6711
ltibia 4.74254
lfoot -3.08233 -10.0474
ltoes 30.378
687
root 9.11926 18.3332 -15.8815 186.85 -2.66747 -179.729
lowerback -9.3125 0.911744 -0.239252
upperback -4.52419 0.83171 -1.39807
thorax 0.548389 0.225056 -1.22972
lowerneck 2.93983 -2.12942 -1.31606
upperneck -7.93058 -2.85142 3.40433
head -2.9786 -1.57116 1.43354
rclavicle 1.69961e-014 -5.60573e-014
rhumerus -46.2613 8.65017 -92.8176
rradius 28.5122
rwrist 1.24887
rhand -5.24874 -400.796
rfingers 7.12502
rthumb 20.5544 290.272
lclavicle 1.69961e-014 -5.60573e-014
lhumerus -38.1912 -20.6665 94.5177
lradius 22.5627
lwrist 8.87295
lhand -1.78678 -371.159
lfingers 7.12502
lthumb 23.8779 17.3771
rfemur 2.21012 6.45376 23.9752
rtibia 0.612719
rfoot 343.173 -13.4372
rtoes 11.6664
lfemur -1.53171 -1.97852 -18.7063
ltibia 4.70175
lfoot -3.02714 -10.0227
ltoes 30.7602
688
root 9.11387 18.3314 -15.884 186.844 -2.63813 -179.799
lowerback -9.21281 0.938704 -0.309238
upperback -4.58653 0.865682 -1.44104
thorax 0.42927 0.239608 -1.2326
lowerneck 3.13599 -2.07792 -1.4186
upperneck -7.99462 -2.77405 3.5811
head -3.0368 -1.53743 1.51247
rclavicle -2.46493e-014 7.15625e-015
rhumerus -46.3369 8.42613 -92.7557
rradius 28.6253
rwrist 1.49197
rhand -5.18107 -400.672
rfingers 7.12502
rthumb 20.6194 290.403
lclavicle -2.46493e-014 7.15625e-015
lhumerus -38.216 -20.8854 94.5825
lradius 22.5898
lwrist 9.09676
lhand -1.86406 -371.177
lfingers 7.12502
lthumb 23.8038 17.3687
rfemur 2.23719 6.33341 23.8485
rtibia 0.62762
rfoot 343.204 -13.2459
rtoes 11.7147
lfemur -1.4697 -1.92176 -18.818
ltibia 4.62236
lfoot -2.97858 -9.95843
ltoes 30.8326
689
root 9.11016 18.3312 -15.8778 186.849 -2.59237 -179.781
lowerback -9.09734 0.95194 -0.339937
upperback -4.59561 0.886421 -1.42522
thorax 0.356211 0.251477 -1.19811
lowerneck 3.16178 -2.07044 -1.43578
upperneck -8.09329 -2.76649 3.58917
head -3.07536 -1.53578 1.52059
rclavicle -7.20594e-015 1.94809e-014
rhumerus -46.2606 8.49027 -92.7689
rradius 28.654
rwrist 1.46377
rhand -5.24429 -400.374
rfingers 7.12502
rthumb 20.5587 290.694
lclavicle -7.20594e-015 1.94809e-014
lhumerus -38.125 -21.122 94.641
lradius 22.6428
lwrist 9.38867
lhand -1.95242 -371.03
lfingers 7.12502
lthumb 23.719 17.5263
rfemur 2.15513 6.37019 23.8462
rtibia 0.722381
rfoot 343.211 -13.1852
rtoes 11.7945
lfemur -1.49575 -1.86986 -18.7884
ltibia 4.61297
lfoot -3.02343 -9.97137
ltoes 30.4972
690
root 9.10291 18.3322 -15.8723 186.869 -2.56699 -179.678
lowerback -9.04195 0.943806 -0.271058
upperback -4.56555 0.876079 -1.373
thorax 0.357259 0.248765 -1.18419
lowerneck 2.96413 -2.04258 -1.38901
upperneck -7.98192 -2.73211 3.5229
head -3.00206 -1.51563 1.48299
rclavicle 4.96962e-017 -1.70955e-014
rhumerus -46.151 8.81277 -92.8808
rradius 28.7285
rwrist 1.19124
rhand -5.28483 -400.189
rfingers 7.12502
rthumb 20.5197 290.875
lclavicle 4.96962e-017 -1.70955e-014
lhumerus -37.9622 -21.1776 94.6043
lradius 22.6517
lwrist 9.44496
lhand -1.92921 -370.957
lfingers 7.12502
lthumb 23.7413 17.5966
rfemur 2.09275 6.40398 23.9382
rtibia 0.69392
rfoot 343.265 -13.2094
rtoes 11.8271
lfemur -1.50777 -1.88084 -18.6907
ltibia 4.55699
lfoot -3.08454 -9.95728
ltoes 30.0609
691
root 9.09373 18.3325 -15.8742 186.869 -2.53193 -179.62
lowerback -9.10796 0.966919 -0.212591
upperback -4.56674 0.90123 -1.37184
thorax 0.393725 0.259828 -1.21296
lowerneck 3.108 -2.01408 -1.31699
upperneck -7.92183 -2.68715 3.48516
head -3.0111 -1.49185 1.45816
rclavicle 5.01931e-015 -1.07344e-014
rhumerus -46.2252 8.99253 -93.016
rradius 28.8517
rwrist 0.904844
rhand -5.37926 -400.295
rfingers 7.12502
rthumb 20.429 290.759
lclavicle 5.01931e-015 -1.07344e-014
lhumerus -37.948 -21.1863 94.544
lradius 22.6482
lwrist 9.34017
lhand -1.71132 -371.037
lfingers 7.12502
lthumb 23.9503 17.4892
rfemur 2.12151 6.28184 23.9492
rtibia 0.614791
rfoot 343.389 -13.09
rtoes 11.9422
lfemur -1.42129 -1.91173 -18.6812
ltibia 4.4362
lfoot -3.05014 -9.90307
ltoes 30.3163
692
root 9.08568 18.3331 -15.8761 186.828 -2.50389 -179.731
lowerback -9.19248 0.953539 -0.343813
upperback -4.4924 0.901371 -1.40185
thorax 0.515111 0.264039 -1.16906
lowerneck 3.04514 -2.04478 -1.16208
upperneck -7.82788 -2.72867 3.32974
head -2.9692 -1.50901 1.37825
rclavicle 8.49804e-015 1.74931e-014
rhumerus -46.1577 9.087 -93.0782
rradius 28.9423
rwrist 0.780544
rhand -5.38419 -400.548
rfingers 7.12502
rthumb 20.4242 290.506
lclavicle 8.49804e-015 1.74931e-014
lhumerus -37.8052 -21.0802 94.4114
lradius 22.6826
lwrist 9.31332
lhand -1.43541 -370.932
lfingers 7.12502
lthumb 24.2148 17.5593
rfemur 2.18676 6.0287 23.7508
rtibia 0.588533
rfoot 343.547 -12.8655
rtoes 11.9002
lfemur -1.31473 -1.91211 -18.8651
ltibia 4.38034
lfoot -2.8978 -9.89464
ltoes 31.7259
693
root 9.08292 18.3342 -15.8721 186.838 -2.47771 -179.826
lowerback -9.16431 0.914904 -0.528303
upperback -4.43705 0.871557 -1.39383
thorax 0.553057 0.254621 -1.0599
lowerneck 3.12886 -1.97088 -1.26609
upperneck -8.01137 -2.62802 3.49494
head -3.04766 -1.46687 1.4528
rclavicle -7.45443e-015 -3.97569e-016
rhumerus -46.01 9.13998 -93.049
rradius 29.0954
rwrist 0.848604
rhand -5.01999 -400.955
rfingers 7.12502
rthumb 20.7742 290.137
lclavicle -7.45443e-015 -3.97569e-016
lhumerus -37.6325 -20.9007 94.2799
lradius 22.778
lwrist 9.28855
lhand -1.47411 -370.772
lfingers 7.12502
lthumb 24.1777 17.7244
rfemur 2.1423 6.11843 23.6282
rtibia 0.620085
rfoot 343.467 -12.9164
rtoes 12.0879
lfemur -1.34302 -1.87584 -18.9645
ltibia 4.38727
lfoot -2.80798 -9.87757
ltoes 32.3296
694
root 9.07854 18.3349 -15.8647 186.849 -2.51079 -179.771
lowerback -8.92524 0.90509 -0.51411
upperback -4.54508 0.84647 -1.36945
thorax 0.30964 0.239454 -1.04757
lowerneck 3.2985 -1.95062 -1.32287
upperneck -8.0836 -2.59535 3.59982
head -3.10398 -1.45434 1.50109
rclavicle -2.48481e-015 0
rhumerus -46.098 9.17013 -93.0706
rradius 29.1601
rwrist 0.862799
rhand -4.97738 -400.902
rfingers 7.12502
rthumb 20.8151 290.195
lclavicle -2.48481e-015 0
lhumerus -37.7715 -20.8843 94.3056
lradius 22.8709
lwrist 9.2974
lhand -1.82438 -370.937
lfingers 7.12502
lthumb 23.8418 17.6035
rfemur 2.0732 6.21516 23.6892
rtibia 0.678002
rfoot 343.329 -13.0021
rtoes 12.2643
lfemur -1.40685 -1.83145 -18.8869
ltibia 4.4114
lfoot -2.8077 -9.90363
ltoes 31.7999
695
root 9.06874 18.3355 -15.8637 186.816 -2.59861 -179.67
lowerback -8.72305 0.909421 -0.373632
upperback -4.63551 0.833491 -1.36321
thorax 0.107217 0.228723 -1.1233
lowerneck 3.32545 -2.01195 -1.22768
upperneck -8.03576 -2.67654 3.50423
head -3.09222 -1.49233 1.45519
rclavicle -6.70898e-015 3.18055e-015
rhumerus -46.187 9.33762 -93.2085
rradius 29.061
rwrist 0.595925
rhand -5.49458 -400.356
rfingers 7.12502
rthumb 20.3182 290.687
lclavicle -6.70898e-015 3.18055e-015
lhumerus -37.9308 -21.0773 94.3951
lradius 22.928
lwrist 9.39311
lhand -2.02512 -371.079
lfingers 7.12502
lthumb 23.6493 17.4868
rfemur 2.09873 5.89436 23.7552
rtibia 0.713494
rfoot 343.477 -12.8366
rtoes 11.4348
lfemur -1.36981 -1.76214 -18.8041
ltibia 4.40043
lfoot -2.70915 -10.0077
ltoes 31.7948
696
root 9.06055 18.338 -15.8646 186.834 -2.69741 -179.718
lowerback -8.70601 0.899139 -0.41282
upperback -4.6773 0.817113 -1.38188
thorax 0.0538977 0.21872 -1.12227
lowerneck 3.44397 -2.05022 -1.13126
upperneck -8.05291 -2.72705 3.38801
head -3.12135 -1.51534 1.40456
rclavicle -1.92324e-014 3.97569e-016
rhumerus -46.2507 9.46197 -93.2726
rradius 29.1045
rwrist 0.406105
rhand -5.76176 -400.126
rfingers 7.12502
rthumb 20.0614 290.89
lclavicle -1.92324e-014 3.97569e-016
lhumerus -37.9621 -21.2739 94.4699
lradius 22.922
lwrist 9.38718
lhand -1.99295 -371.039
lfingers 7.12502
lthumb 23.6802 17.5226
rfemur 2.08967 5.62294 23.6445
rtibia 0.698295
rfoot 343.652 -12.7592
rtoes 10.699
lfemur -1.39142 -1.73636 -18.8923
ltibia 4.40196
lfoot -2.48831 -10.0981
ltoes 32.6656
